<svg width="1280" height="640" viewBox="0 0 1280 640" fill="none" xmlns="http://www.w3.org/2000/svg">
<rect width="1280" height="640" rx="32" fill="#FAFAFA"/>
<g clip-path="url(#clip0_1_2)">
<path d="M800 160H1120V480H800V160Z" fill="#F0DB4F"/>
<path d="M1093.81 403.681C1091.47 389.08 1081.95 376.821 1053.75 365.384C1043.95 360.882 1033.03 357.658 1029.78 350.236C1028.62 345.916 1028.47 343.483 1029.2 340.867C1031.3 332.38 1041.43 329.734 1049.46 332.167C1054.63 333.901 1059.53 337.886 1062.48 344.243C1076.29 335.301 1076.26 335.361 1085.9 329.217C1082.37 323.742 1080.49 321.217 1078.17 318.875C1069.87 309.597 1058.56 304.822 1040.46 305.187C1037.32 305.582 1034.16 306.008 1031.03 306.403C1021.99 308.685 1013.38 313.43 1008.33 319.787C993.186 336.974 997.506 367.057 1015.94 379.438C1034.1 393.065 1060.78 396.168 1064.18 408.913C1067.5 424.517 1052.72 429.567 1038.02 427.772C1027.19 425.521 1021.17 420.016 1014.66 410.008C1002.68 416.943 1002.68 416.943 990.358 424.031C993.278 430.419 996.35 433.308 1001.25 438.844C1024.43 462.358 1082.43 461.202 1092.84 425.612C1093.26 424.395 1096.06 416.243 1093.81 403.681ZM973.962 307.072H944.03C944.03 332.928 943.909 358.601 943.909 384.456C943.909 400.913 944.761 416 942.084 420.624C937.704 429.718 926.358 428.593 921.187 426.829C915.924 424.243 913.247 420.562 910.145 415.361C909.293 413.871 908.654 412.715 908.441 412.624C900.32 417.582 892.228 422.57 884.106 427.529C888.152 435.833 894.114 443.042 901.749 447.726C913.156 454.57 928.487 456.669 944.517 452.988C954.951 449.946 963.954 443.65 968.669 434.068C975.483 421.506 974.023 406.297 973.962 389.475C974.114 362.038 973.962 334.601 973.962 307.072Z" fill="#27272A"/>
</g>
<rect width="21.7889" height="108.945" transform="translate(699.071 320.036) rotate(135)" fill="#27272A"/>
<rect width="21.7889" height="108.945" transform="translate(622.035 397.071) rotate(-135)" fill="#27272A"/>
<path d="M137 366V272.909H162.273V309.273H195.727V272.909H221V366H195.727V329.636H162.273V366H137ZM230.455 293.273V272.909H311.364V293.273H283.364V366H258.455V293.273H230.455ZM320.875 272.909H352.33L373.966 325.636H375.057L396.693 272.909H428.148V366H403.42V312.182H402.693L381.966 365.273H367.057L346.33 311.818H345.602V366H320.875V272.909ZM440.125 366V272.909H465.398V345.636H503.034V366H440.125Z" fill="#2A2727"/>
<defs>
<clipPath id="clip0_1_2">
<rect width="320" height="320" fill="white" transform="translate(800 160)"/>
</clipPath>
</defs>
</svg>
